<?xml version="1.0" standalone="no"?>
<!DOCTYPE svg PUBLIC "-//W3C//DTD SVG 20010904//EN"
 "http://www.w3.org/TR/2001/REC-SVG-20010904/DTD/svg10.dtd">
<svg version="1.0" xmlns="http://www.w3.org/2000/svg"
 width="300.000000pt" height="243.000000pt" viewBox="0 0 300.000000 243.000000"
 preserveAspectRatio="xMidYMid meet">
<metadata>
Created by potrace 1.10, written by Peter Selinger 2001-2011
</metadata>
<g transform="translate(0.000000,243.000000) scale(0.100000,-0.100000)"
fill="#000000" stroke="none">
<path d="M1486 2362 c-13 -20 -86 -141 -163 -267 -77 -127 -241 -394 -365
-595 -224 -363 -518 -846 -721 -1181 -59 -97 -107 -181 -107 -188 0 -14 1266
-16 1274 -2 3 5 -11 32 -32 60 l-37 51 -502 0 c-277 0 -503 2 -503 3 0 5 243
406 400 662 68 110 180 295 250 410 70 116 201 329 292 475 91 146 182 295
204 332 21 37 41 68 44 68 3 0 19 -24 36 -53 17 -28 125 -205 241 -392 115
-187 235 -384 267 -437 32 -54 63 -101 69 -107 14 -10 136 -61 149 -61 4 0 8
4 8 10 0 8 -429 722 -550 915 -20 33 -75 122 -120 198 -46 75 -89 137 -96 137
-8 0 -24 -17 -38 -38z m62 -4 c20 -34 41 -69 471 -777 138 -228 250 -416 248
-418 -2 -2 -32 7 -66 20 -61 23 -63 25 -115 113 -67 115 -303 501 -439 719
-59 94 -110 177 -116 185 -5 8 -11 13 -14 10 -5 -5 -298 -480 -431 -697 -45
-73 -166 -271 -270 -440 -235 -385 -506 -832 -506 -838 0 -3 222 -5 493 -5
270 0 501 -3 512 -6 20 -5 81 -81 73 -90 -3 -2 -284 -3 -626 -2 l-621 3 52 85
c116 193 640 1052 867 1420 134 217 280 456 325 530 103 171 134 220 139 220
2 0 13 -15 24 -32z"/>
<path d="M1478 1853 c-13 -16 -54 -66 -90 -113 -151 -198 -192 -277 -193 -372
l0 -67 -65 -54 c-36 -30 -79 -70 -97 -88 -76 -82 -206 -290 -190 -305 3 -4 50
12 103 34 74 32 94 37 88 24 -27 -64 -43 -124 -44 -165 0 -54 31 -156 62 -202
32 -46 160 -175 170 -169 4 3 8 35 9 72 1 37 4 78 8 92 l7 25 13 -25 c8 -14
67 -102 131 -195 103 -149 152 -234 188 -325 l10 -25 44 47 c87 92 125 203
137 401 7 108 11 133 29 157 32 43 29 53 -15 45 -91 -17 -173 -99 -197 -197
-3 -16 -2 -28 3 -28 5 0 12 15 15 33 15 79 91 159 166 173 l32 7 -18 -27 c-13
-21 -21 -67 -30 -178 -17 -199 -45 -282 -126 -373 l-30 -35 -47 93 c-25 50
-94 160 -152 242 -57 83 -115 167 -128 188 -12 20 -26 37 -31 37 -8 0 -18 -61
-23 -141 l-2 -47 -38 30 c-47 37 -125 143 -148 200 -31 76 -18 249 22 293 12
12 11 25 -1 25 -6 0 -49 -16 -97 -35 -48 -19 -89 -32 -91 -30 -2 2 17 39 42
83 59 102 143 201 236 279 l75 63 -3 55 c-5 64 8 108 56 188 38 66 198 282
229 310 19 17 21 15 50 -45 45 -95 62 -154 71 -251 l7 -88 65 -23 c171 -60
223 -100 280 -215 34 -69 37 -71 100 -97 36 -14 135 -51 220 -80 164 -57 203
-81 180 -108 -8 -10 -29 -16 -60 -16 -25 0 -49 -3 -53 -6 -3 -3 2 -21 11 -40
15 -32 15 -36 -5 -62 -11 -15 -42 -40 -68 -57 l-49 -30 -150 5 c-266 8 -369 5
-409 -9 -50 -17 -106 -67 -123 -108 -18 -42 -17 -110 1 -148 11 -22 13 -24 9
-6 -3 13 -6 50 -7 82 -1 143 120 203 362 180 264 -25 345 -13 425 63 39 36 43
58 21 109 -6 15 -1 17 42 17 71 0 96 36 53 75 -16 14 -225 93 -418 158 -28 9
-40 23 -68 79 -19 38 -50 86 -69 107 -36 40 -138 95 -232 126 l-53 17 0 61 c0
34 -7 90 -15 125 -17 72 -83 212 -100 212 -6 0 -23 -12 -37 -27z"/>
<path d="M1441 1624 c-84 -128 -110 -230 -74 -297 l17 -32 12 41 c15 52 30 79
65 124 15 19 33 56 38 82 11 46 5 134 -9 143 -3 2 -26 -25 -49 -61z m47 -48
c-4 -53 -10 -70 -51 -129 -26 -38 -47 -77 -47 -87 0 -28 -17 -33 -24 -7 -15
58 10 140 76 251 47 79 53 75 46 -28z"/>
<path d="M1750 1173 c24 -21 51 -44 61 -51 16 -11 139 -33 139 -25 0 3 -19 27
-42 54 -41 49 -42 49 -97 47 l-56 -2 52 -3 c46 -4 56 -8 82 -40 17 -20 29 -38
27 -40 -2 -2 -25 1 -51 7 -46 10 -123 64 -117 82 1 4 -8 8 -20 8 -18 0 -15 -6
22 -37z"/>
<path d="M2458 767 l-36 -43 144 -237 c79 -131 144 -239 144 -242 0 -3 -190
-6 -422 -7 l-423 -3 -16 -35 c-10 -20 -19 -45 -21 -55 -3 -20 6 -20 531 -23
294 -1 539 2 543 6 9 9 -388 682 -401 682 -4 0 -23 -19 -43 -43z m244 -305
l197 -327 -526 -3 c-290 -1 -528 0 -531 2 -2 3 4 25 14 50 l19 46 420 1 c231
1 423 1 428 0 4 0 7 1 7 4 0 2 -65 113 -145 246 l-145 241 25 30 c14 16 25 34
25 40 0 20 12 2 212 -330z"/>
</g>
</svg>
